<?xml version="1.0" encoding="UTF-8"?>
<svg width="13px" height="13px" viewBox="0 0 13 13" version="1.1" xmlns="http://www.w3.org/2000/svg" xmlns:xlink="http://www.w3.org/1999/xlink">
    <!-- Generator: Sketch 46.2 (44496) - http://www.bohemiancoding.com/sketch -->
    <title>call-answer</title>
    <desc>Created with Sketch.</desc>
    <defs></defs>
    <g id="Page-1" stroke="none" stroke-width="1" fill="none" fill-rule="evenodd">
        <g id="Contact-US" transform="translate(-630.000000, -292.000000)" fill-rule="nonzero" fill="#FFFFFF">
            <g id="call-answer" transform="translate(630.000000, 292.000000)">
                <path d="M12.7085637,10.2823736 L10.7009165,8.26995274 C10.3010304,7.87077015 9.63881118,7.88289835 9.2249942,8.29780269 L8.2135329,9.3113312 C8.1496303,9.27603213 8.08348681,9.2391609 8.01394465,9.2000437 C7.3752174,8.84533118 6.50101038,8.35915493 5.58108928,7.43647565 C4.65844176,6.51184987 4.17291643,5.63431446 3.81792272,4.99372821 C3.78046258,4.92586268 3.74457105,4.86043027 3.7091277,4.79829195 L4.38796681,4.11892539 L4.72170945,3.78401479 C5.13616134,3.36851152 5.14758985,2.70497901 4.74863743,2.304636 L2.7409902,0.291990588 C2.34203777,-0.107790932 1.67951979,-0.0956627283 1.2650679,0.319840537 L0.699244155,0.890202992 L0.714706269,0.905587843 C0.524977911,1.14822678 0.366435217,1.42807384 0.248452563,1.72985648 C0.139694889,2.01711523 0.0719827802,2.29123508 0.0410212036,2.56591643 C-0.224075625,4.76860779 0.78021484,6.7817024 3.50572994,9.51343049 C7.27321974,13.2891948 10.3093217,13.0039574 10.4403014,12.9900324 C10.7255663,12.9558563 10.9989544,12.8875416 11.2767869,12.7793984 C11.5752729,12.6625335 11.8543006,12.5038561 12.0962416,12.3141097 L12.1086038,12.3251149 L12.6818225,11.7625384 C13.0954154,11.34711 13.1073294,10.6833529 12.7085637,10.2823736 Z" id="Shape"></path>
            </g>
        </g>
    </g>
</svg>