<svg xmlns="http://www.w3.org/2000/svg" width="15" height="15" viewBox="0 0 15 15">
    <path fill="#FFF" fill-rule="nonzero" d="M12.435 0H1.938C.868 0 0 .905 0 2.021V12.98C.001 14.095.868 15 1.938 15h5.177l.008-5.36H5.79a.322.322 0 0 1-.314-.327l-.007-1.728c0-.182.14-.33.315-.33h1.332v-1.67c0-1.937 1.133-2.992 2.789-2.992h1.359c.173 0 .314.147.314.329v1.456c0 .182-.14.329-.314.329h-.834c-.9 0-1.075.447-1.075 1.103v1.445h1.979c.188 0 .335.172.312.367L11.45 9.35a.32.32 0 0 1-.312.29H9.363L9.354 15h3.08c1.07 0 1.937-.905 1.937-2.021V2.02C14.371.905 13.504 0 12.435 0z"/>
</svg>
