<svg xmlns="http://www.w3.org/2000/svg" width="16" height="15" viewBox="0 0 16 15">
    <g fill="#FFF" fill-rule="nonzero" transform="translate(.43)">
        <path d="M10.49 0H4.452A4.461 4.461 0 0 0 0 4.46v6.053c0 2.46 1.997 4.46 4.451 4.46h6.04a4.461 4.461 0 0 0 4.451-4.46V4.461C14.942 2 12.945 0 10.491 0zm2.95 10.513a2.951 2.951 0 0 1-2.95 2.954H4.452a2.951 2.951 0 0 1-2.948-2.954V4.461a2.951 2.951 0 0 1 2.948-2.955h6.04a2.951 2.951 0 0 1 2.948 2.955v6.052z"/>
        <path d="M7.471 3.614a3.873 3.873 0 0 0 0 7.746 3.873 3.873 0 0 0 0-7.746zm0 6.24A2.364 2.364 0 0 1 5.11 7.486 2.364 2.364 0 0 1 7.47 5.12a2.364 2.364 0 0 1 2.362 2.367A2.364 2.364 0 0 1 7.47 9.853z"/>
        <ellipse cx="11.343" cy="3.643" rx="1" ry="1"/>
    </g>
</svg>
