<?xml version="1.0" encoding="UTF-8"?>
<svg width="9px" height="13px" viewBox="0 0 9 13" version="1.1" xmlns="http://www.w3.org/2000/svg" xmlns:xlink="http://www.w3.org/1999/xlink">
    <!-- Generator: Sketch 46.2 (44496) - http://www.bohemiancoding.com/sketch -->
    <title>placeholder-filled-point (2)</title>
    <desc>Created with Sketch.</desc>
    <defs></defs>
    <g id="Page-1" stroke="none" stroke-width="1" fill="none" fill-rule="evenodd">
        <g id="Contact-US" transform="translate(-630.000000, -197.000000)" fill-rule="nonzero" fill="#FFFFFF">
            <g id="placeholder-filled-point-(2)" transform="translate(630.000000, 197.000000)">
                <path d="M4.49981236,0 C2.01873601,0 0,2.14706484 0,4.78612658 C0,5.47449648 0.132472514,6.13173408 0.393539689,6.73974537 C1.51861787,9.35818528 3.67570573,12.1227075 4.31017277,12.9075344 C4.35770776,12.9662068 4.42700877,13 4.49993745,13 C4.57286614,13 4.64216715,12.9662068 4.68970214,12.9075344 C5.323919,12.1228406 7.48100685,9.35845137 8.60646031,6.73974537 C8.86765258,6.13173408 9,5.47449648 9,4.78612658 C8.99974982,2.14706484 6.9810138,0 4.49981236,0 Z M4.49981236,7.27205461 C3.21098864,7.27205461 2.16234172,6.15674636 2.16234172,4.78599353 C2.16234172,3.41510766 3.21098864,2.29979941 4.49981236,2.29979941 C5.78863608,2.29979941 6.837283,3.41510766 6.837283,4.78599353 C6.83740809,6.15674636 5.78876117,7.27205461 4.49981236,7.27205461 Z" id="Shape"></path>
            </g>
        </g>
    </g>
</svg>