<?xml version="1.0" encoding="UTF-8"?>
<svg width="434px" height="392px" viewBox="0 0 434 392" version="1.1" xmlns="http://www.w3.org/2000/svg" xmlns:xlink="http://www.w3.org/1999/xlink">
    <!-- Generator: Sketch 46.2 (44496) - http://www.bohemiancoding.com/sketch -->
    <title>Group 2</title>
    <desc>Created with Sketch.</desc>
    <defs>
        <linearGradient x1="59.6709013%" y1="82.2951541%" x2="59.6709013%" y2="-126.279304%" id="linearGradient-1">
            <stop stop-color="#F9F8F3" offset="0%"></stop>
            <stop stop-color="#969798" offset="15.9%"></stop>
            <stop stop-color="#EEF6FC" offset="38.46%"></stop>
            <stop stop-color="#D3D4D5" offset="52.82%"></stop>
            <stop stop-color="#969798" offset="64.1%"></stop>
            <stop stop-color="#454446" offset="73.33%"></stop>
            <stop stop-color="#F1F2F2" offset="100%"></stop>
        </linearGradient>
        <text id="text-2" font-family="Airstrike" font-size="52" font-weight="normal">
            <tspan x="0" y="384">Live to train !!!</tspan>
        </text>
        <filter x="-0.7%" y="-6.7%" width="103.6%" height="126.7%" filterUnits="objectBoundingBox" id="filter-3">
            <feOffset dx="3" dy="3" in="SourceAlpha" result="shadowOffsetOuter1"></feOffset>
            <feGaussianBlur stdDeviation="1.5" in="shadowOffsetOuter1" result="shadowBlurOuter1"></feGaussianBlur>
            <feColorMatrix values="0 0 0 0 0.0943877551   0 0 0 0 0.0943877551   0 0 0 0 0.0943877551  0 0 0 1 0" type="matrix" in="shadowBlurOuter1"></feColorMatrix>
        </filter>
        <linearGradient x1="49.7389942%" y1="-18.0856209%" x2="48.3584583%" y2="120.397188%" id="linearGradient-4">
            <stop stop-color="#F9F8F3" offset="0%"></stop>
            <stop stop-color="#969798" offset="15.9%"></stop>
            <stop stop-color="#EEF6FC" offset="38.46%"></stop>
            <stop stop-color="#D3D4D5" offset="52.82%"></stop>
            <stop stop-color="#969798" offset="64.1%"></stop>
            <stop stop-color="#454446" offset="73.33%"></stop>
            <stop stop-color="#F1F2F2" offset="100%"></stop>
        </linearGradient>
        <path d="M153.2593,105.1129 C154.3955,96.526 159.4219,90.5448 162.184,85.3372 C164.6531,80.6829 160.3779,82.1511 165.0758,71.1695 C167.8674,64.6419 170.1539,66.0666 182.884,61.5147 C195.4139,57.0347 228.6674,45.7658 240.7582,44.5754 C238.3198,50.2917 228.0999,61.7773 224.2274,65.6875 C212.2709,77.7641 195.7566,87.2198 179.6662,94.6657 C173.8345,97.3644 159.6738,104.052 153.2593,105.1129 Z M169.4357,256.0126 C169.1578,259.1021 171.7399,267.6807 172.6841,269.5881 L175.7219,281.7071 C172.8608,280.6215 142.1434,256.9286 137.1536,253.0185 C128.2242,246.0223 129.6253,247.9215 110.4807,251.3136 C104.3817,252.3933 96.5249,262.3671 91.5162,266.5198 L67.5089,288.5302 C68.1753,291.3571 73.1016,298.6982 79.3348,298.69 C114.186,298.6417 159.9199,290.965 192.7283,278.6176 C195.8319,277.4496 198.1232,276.5677 200.6758,275.4127 C203.1059,274.3107 207.0031,272.9872 208.6868,271.1517 C211.8941,270.8879 224.8973,263.661 226.0477,261.8855 C234.4755,258.8513 252.9537,242.3959 259.1893,235.859 C279.6902,214.3678 292.1083,186.6423 297.15,155.799 C298.776,145.8558 300.1394,124.4694 297.9812,114.4697 C297.1229,110.4948 293.1433,109.3998 290.5447,107.1839 C293.6955,97.3526 290.7896,98.9244 287.4187,90.1645 C279.463,90.9722 269.2937,93.6591 261.3745,95.3216 C253.2716,97.0217 241.759,100.4492 234.6863,100.5975 C237.8088,96.9746 245.5785,93.7203 247.8014,89.7842 C250.0785,89.2191 250.7131,88.2536 253.5,86.0448 C255.6241,84.3599 256.6955,83.3509 258.7442,81.6425 C262.1563,78.7955 266.0406,75.6848 269.1183,72.6942 C286.4297,55.8679 277.5144,62.9547 281.7801,56.3883 C283.007,54.4998 284.6247,53.1552 286.2684,50.8121 C284.6495,36.6868 274.9394,11.4056 269.3797,0.5299 C255.982,2.6421 234.7769,7.5119 222.7427,11.9142 L199.1499,18.9916 C200.0341,14.1207 199.5066,15.5206 208.4867,12.0508 C212.3992,10.5402 214.9294,9.3357 217.15,3.2897 C200.7346,5.5962 178.5782,16.406 164.6707,22.459 C148.054,29.693 132.1296,37.5157 116.9835,46.1037 C107.6172,51.415 102.7816,53.5896 98.271,63.0359 C92.3463,75.4423 101.0426,71.9772 98.1756,92.5052 C96.32,105.791 86.0283,143.9013 91.2348,155.3033 C93.6732,151.3955 104.6019,113.5737 107.8044,103.8024 C108.7993,100.7635 109.6306,98.2203 110.5254,95.3581 C110.9281,94.0747 111.5191,92.0872 112.0278,90.9016 C113.2287,88.1041 112.6907,88.5515 115.0066,87.7261 C118.2174,90.2599 125.5656,114.505 127.4377,120.146 C130.9675,130.7838 135.8055,142.4955 138.822,153.3264 C143.6964,153.0344 213.2622,131.7858 252.65,128.6386 C251.9459,160.4061 241.4269,184.5123 225.5072,200.6875 C217.9412,208.3748 208.157,216.128 197.6345,222.6108 C181.8561,232.3362 177.5504,232.7836 164.6507,239.8621 C165.3053,243.7923 167.8403,253.9463 169.4357,256.0126 L169.4357,256.0126 Z" id="path-5"></path>
        <filter x="-3.0%" y="-1.7%" width="106.0%" height="104.7%" filterUnits="objectBoundingBox" id="filter-6">
            <feOffset dx="0" dy="2" in="SourceAlpha" result="shadowOffsetOuter1"></feOffset>
            <feGaussianBlur stdDeviation="2" in="shadowOffsetOuter1" result="shadowBlurOuter1"></feGaussianBlur>
            <feColorMatrix values="0 0 0 0 0   0 0 0 0 0   0 0 0 0 0  0 0 0 0.5 0" type="matrix" in="shadowBlurOuter1"></feColorMatrix>
        </filter>
    </defs>
    <g id="Page-1" stroke="none" stroke-width="1" fill="none" fill-rule="evenodd">
        <g id="Home" transform="translate(-277.000000, -188.000000)">
            <g id="Group-2" transform="translate(276.000000, 190.000000)">
                <g id="Live-to-train-!!!-Copy-2">
                    <use fill="#D8D8D8" fill-opacity="1" filter="url(#filter-3)" xlink:href="#text-2"></use>
                    <use fill="url(#linearGradient-1)" fill-rule="evenodd" xlink:href="#text-2"></use>
                    <use fill="#D8D8D8" fill-opacity="1" xlink:href="#text-2"></use>
                </g>
                <g id="B-STAR-logo-(1)" transform="translate(60.000000, 0.000000)">
                    <g id="Layer1000">
                        <path d="M159.001082,107.86667 C160.147111,99.1357747 165.216992,93.0542749 168.002985,87.7593478 C170.493444,83.0269991 166.181262,84.5198196 170.919801,73.3540673 C173.73555,66.7170049 176.041829,68.1655959 188.88205,63.5373643 C201.52034,58.9822385 235.061499,47.5243684 247.25689,46.3140064 C244.797397,52.126164 234.48909,63.8043679 230.583091,67.7801387 C218.523161,80.0592532 201.866005,89.6735175 185.636415,97.244279 C179.754268,99.988234 165.471071,106.787979 159.001082,107.86667 Z M175.317416,261.296832 C175.037112,264.438141 177.641548,273.160597 178.593916,275.099982 L181.657995,287.422208 C178.772145,286.318403 147.789024,262.228193 142.75606,258.252524 C133.749417,251.139003 135.162637,253.070051 115.852427,256.519034 C109.700668,257.61684 101.775902,267.757892 96.7238747,271.980229 L72.5089,294.359725 C73.1810647,297.23403 78.1499796,304.698234 84.4370997,304.689897 C119.589779,304.640787 165.7193,296.835355 198.811508,284.280899 C201.941956,283.093313 204.253077,282.196624 206.827758,281.022256 C209.27888,279.901776 213.209792,278.556082 214.908057,276.689802 C218.143102,276.421579 231.258786,269.07349 232.419137,267.268216 C240.919842,264.183135 259.557887,247.451791 265.847428,240.805273 C286.525671,218.953684 299.051193,190.76325 304.136506,159.402734 C305.776572,149.292794 307.151766,127.547762 304.974897,117.380376 C304.109172,113.33882 300.095147,112.225458 297.474067,109.972399 C300.652123,99.9762361 297.721086,101.574394 294.321026,92.6675976 C286.296505,93.4888421 276.039236,96.2207992 268.051531,97.9111779 C259.878537,99.6397872 248.266348,103.124763 241.132465,103.27555 C244.281976,99.5918973 252.118888,96.2830254 254.361017,92.2809203 C256.657815,91.7063441 257.297905,90.7246534 260.108913,88.4788137 C262.251387,86.7656593 263.332055,85.7397392 265.398478,84.0026908 C268.840094,81.107949 272.757995,77.9450851 275.862319,74.9043352 C293.323471,57.7958722 284.331049,65.0015119 288.633649,58.3249989 C289.871163,56.4048303 291.502857,55.0376825 293.160775,52.6552906 C291.527871,38.2931211 281.733774,12.5879764 276.12598,1.5299 C262.612383,3.67751984 241.223849,8.62898233 229.085547,13.1051052 L205.288658,20.3011873 C206.180507,15.3486064 205.648444,16.7719816 214.706226,13.2439959 C218.652571,11.7080644 221.204659,10.4833659 223.444468,4.33597955 C206.887067,6.68115763 184.539003,17.672229 170.511197,23.8267328 C153.750754,31.1820409 137.6886,39.1359211 122.411479,47.8679347 C112.964156,53.2683008 108.086726,55.479367 103.537107,65.0840736 C97.5611555,77.6985186 106.332683,74.1753117 103.440882,95.0475492 C101.56923,108.556141 91.1885018,147.305519 96.4400405,158.898721 C98.8995338,154.925391 109.922772,116.46935 113.152976,106.534194 C114.156482,103.444334 114.994973,100.858487 115.897514,97.94829 C116.303697,96.6433684 116.899809,94.6225397 117.41291,93.4170582 C118.624198,90.5726464 118.081544,91.027549 120.417478,90.1883077 C123.656053,92.7645974 131.067818,117.416268 132.956113,123.151862 C136.516448,133.968049 141.396299,145.876145 144.438893,156.88867 C149.355459,156.591774 219.523036,134.986852 259.25156,131.786876 C258.541369,164.087091 247.931375,188.597532 231.873962,205.043976 C224.242512,212.860186 214.373674,220.743401 203.760149,227.334912 C187.845259,237.223399 183.502312,237.678301 170.491023,244.875502 C171.151286,248.871608 173.708215,259.195882 175.317416,261.296832 L175.317416,261.296832 Z" id="path4" fill="#343434"></path>
                        <g id="path4-copy">
                            <use fill="black" fill-opacity="1" filter="url(#filter-6)" xlink:href="#path-5"></use>
                            <use fill="url(#linearGradient-4)" fill-rule="evenodd" xlink:href="#path-5"></use>
                        </g>
                        <path d="M41.9258,303.5895 C49.9334,299.9619 111.6459,239.7954 120.0101,231.9904 C124.5702,229.3671 123.2233,229.5025 131.1272,235.3884 C136.9836,239.7506 157.5329,255.6597 161.9128,256.6028 C158.8527,245.713 148.3715,213.4945 148.0653,203.3865 C149.0661,200.6702 188.3703,177.6508 189.8774,174.5 L138.5719,172.9211 C133.7222,159.3763 127.6197,132.6963 121.4925,122.7613 C119.2849,125.8885 104.8369,169.3359 102.5269,171.0408 L101.2682,171.6225 C97.6971,172.6233 56.7023,171.6943 51.9138,171.805 L77.5694,193.0712 C92.7956,205.2609 91.5864,200.3194 86.4306,210.6381 L41.9258,303.5895 Z" id="path6" fill="#343434"></path>
                        <path d="M36.9258,299.5895 C44.9334,295.9619 106.6459,235.7954 115.0101,227.9904 C119.5702,225.3671 118.2233,225.5025 126.1272,231.3884 C131.9836,235.7506 152.5329,251.6597 156.9128,252.6028 C153.8527,241.713 143.3715,209.4945 143.0653,199.3865 C144.0661,196.6702 183.3703,173.6508 184.8774,170.5 L133.5719,168.9211 C128.7222,155.3763 122.6197,128.6963 116.4925,118.7613 C114.2849,121.8885 99.8369,165.3359 97.5269,167.0408 L96.2682,167.6225 C92.6971,168.6233 51.7023,167.6943 46.9138,167.805 L72.5694,189.0712 C87.7956,201.2609 86.5864,196.3194 81.4306,206.6381 L36.9258,299.5895 Z" id="path6" fill="#E30016"></path>
                        <g id="Group" transform="translate(3.000000, 177.000000)" fill="#343434">
                            <path d="M12.2513,62.5116 C12.9557,58.5532 14.0562,54.8319 15.2968,51.1312 C15.8317,49.5355 18.3799,41.3515 19.0068,40.7768 C19.6295,40.9538 19.5796,41.6104 19.7062,42.2497 C19.8202,42.826 19.9363,43.3266 20.0436,43.8712 C22.5483,56.5859 24.1896,86.2697 22.0351,98.0333 L22.0166,98.1339 C21.688,99.9283 20.9519,103.6782 18.9507,101.5353 C18.0686,100.5907 17.0387,98.5338 16.4925,97.0832 C16.175,96.2398 15.8116,95.4648 15.4983,94.6061 C15.1934,93.7705 14.9032,92.9865 14.6239,92.1335 C11.5936,82.8812 10.387,72.9891 12.2513,62.5116 L12.2513,62.5116 Z M33.2176,21.7112 C36.0615,21.9614 39.6018,21.1752 40.5437,21.3875 C40.4529,22.0848 39.4547,22.5998 39.0579,22.8666 C37.8696,23.6654 35.0032,25.4349 33.7972,25.7592 C33.457,25.2189 33.1093,22.6059 33.2176,21.7112 L33.2176,21.7112 Z M31.6153,20.4948 C30.1376,20.6388 25.92,19.9353 26.7015,16.8294 C26.9428,15.8708 27.6821,14.4922 28.1898,13.6622 C30.8804,9.2632 30.4908,11.7314 31.0124,15.851 C31.1091,16.614 31.7169,20.0666 31.6153,20.4948 L31.6153,20.4948 Z M36.0795,51.7291 C36.1801,52.5192 36.1303,54.3463 36.2724,54.8592 C36.5828,55.9799 38.0075,56.099 37.9609,54.3942 C37.9342,53.4177 37.7164,52.3556 37.6163,51.3775 C37.2847,48.136 37.7628,44.8956 37.8532,41.6137 C37.9093,39.5753 37.7853,37.2292 37.9196,35.2517 C38.2436,35.5577 41.838,44.2103 42.3318,45.3791 C42.799,46.485 43.2696,47.7245 43.7854,48.7681 C44.4436,50.1002 46.5667,50.2306 45.5049,47.9269 C45.2388,47.3495 44.9471,46.99 44.7049,46.2826 L43.0721,40.8192 C42.8913,40.2061 41.8431,37.6746 42.5046,37.0659 C42.7799,38.0697 44.0358,40.6097 44.5593,41.7218 C45.2114,43.107 45.9173,45.0787 46.7361,46.2815 C47.1203,46.8459 48.4905,47.9238 48.9967,46.6983 C49.6942,45.0099 47.6051,40.3341 47.6271,38.6545 C48.3666,39.0782 49.5025,43.1247 51.9013,45.4238 C54.8438,48.244 55.0557,40.1334 55.2811,38.2297 C56.1391,38.6389 56.7453,41.0212 57.4409,41.8445 C58.5929,43.2082 60.2535,43.1546 60.8497,41.3576 C61.572,39.1806 61.1446,36.2692 60.3049,34.3162 C60.0602,33.7472 59.8006,32.7817 59.152,32.7008 C58.6849,33.1032 58.9312,33.3158 59.1093,33.9143 C59.4673,35.1168 60.4329,40.5403 59.0816,40.9565 C58.0547,41.2727 57.6778,39.7971 57.4036,39.2315 C56.6352,37.6465 56.0302,36.1791 55.3967,34.4679 C55.0549,33.5448 54.8512,32.8922 54.574,31.9596 C54.3373,31.1632 54.0405,30.0219 52.936,30.1888 C52.5833,30.8865 53.1649,32.5425 53.3393,33.3436 C53.5698,34.4022 53.7538,35.4642 53.8206,36.6188 C53.9159,38.2636 53.8366,42.803 53.0842,44.0974 C51.728,44.2893 51.209,42.6586 50.7592,41.7324 C50.2351,40.6534 49.8192,39.6682 49.2891,38.5283 L47.9473,35.2367 C47.6671,34.4388 46.9999,32.2336 45.7997,33.1972 C45.1986,34.0355 47.6961,42.2537 47.1217,43.493 C46.448,43.3531 46.4326,42.8389 46.2033,42.2533 C45.669,40.8881 43.1941,34.2984 41.6595,33.8794 C39.8972,33.3982 41.0078,37.1378 40.9371,38.1259 C40.6963,37.8975 40.5586,37.5306 40.4157,37.2093 L38.4722,32.6638 C38.0968,31.9483 37.142,31.9634 36.8505,32.6202 C36.6431,33.0876 36.6239,40.7147 36.3184,42.3762 C36.304,42.3525 36.2884,42.3196 36.2807,42.3022 C35.9355,41.5201 35.5928,38.8248 35.4601,38.0074 L34.1578,29.1432 C33.9912,27.9165 34.2273,28.0366 35.0995,27.5574 L38.5105,25.5017 C39.6953,24.7683 42.8073,22.8846 43.0262,21.4397 C43.2881,19.7117 40.2888,19.8063 38.9898,19.9894 C37.4946,20.2001 36.0832,20.3937 34.5506,20.5559 C33.0883,20.7106 32.7461,20.7936 32.5405,17.5164 C32.4387,15.8938 32.4803,14.4278 32.2733,12.864 C32.0782,11.3901 31.6696,9.9462 31.2238,8.6662 C30.5262,6.6628 29.7405,6.4201 28.5005,8.2859 C27.126,10.3541 24.9407,14.0567 25.2997,17.008 C25.5029,18.6791 25.992,19.7879 27.0175,20.6448 C28.7221,22.0692 29.8135,21.6531 31.8469,21.984 C32.0518,22.5822 32.2703,23.6805 32.3947,24.4764 C32.7317,26.6313 32.8066,26.0697 29.6189,27.6434 C29.0621,27.9183 27.9541,28.6122 27.4992,28.6593 C27.0793,27.8711 26.7883,25.8374 25.2804,26.7149 C22.5494,28.304 20.2473,34.879 19.2904,35.9149 C19.0949,35.6028 17.6363,30.7125 16.8171,29.2164 C15.779,27.3201 14.6538,25.2019 12.4546,23.8894 C11.3057,23.2037 9.5775,23.0544 8.3668,23.3857 C5.0749,24.2866 2.802,28.4554 1.5883,31.6091 C0.5543,34.2959 0.0308,37.3447 0.2165,40.2152 C0.6246,46.5225 5.5411,54.2194 11.7524,50.9525 C12.7862,50.4088 13.9068,49.2793 13.4244,48.039 C12.6792,47.996 11.9203,49.2404 11.2168,49.6764 C10.5756,50.0738 9.5759,50.5032 8.4639,50.39 C6.5125,50.1914 4.7613,48.678 3.8655,47.1753 C1.9164,43.906 0.9372,40.84 1.9403,35.6186 C2.834,30.966 5.1138,27.2634 8.0357,25.6958 C9.6862,24.8103 12.1642,24.9377 13.6321,26.4999 C14.6776,27.6124 15.6648,29.37 16.3404,31.0416 C17.0069,32.6908 17.598,34.4532 18.1323,36.3089 C18.5547,37.776 18.697,37.6563 18.0555,39.2576 C17.6726,40.2136 17.2852,41.197 16.9171,42.1734 C15.3764,46.2611 13.9844,50.4623 12.827,54.8187 C11.6348,59.3062 10.5325,64.5165 10.1409,69.1633 C9.5444,76.2412 10.9811,86.2443 13.128,92.82 C14.1572,95.9722 15.6618,99.9425 17.685,102.4999 C19.0971,104.2848 21.1022,104.222 22.3204,101.9249 C25.2215,96.4546 24.5551,75.9369 24.0569,69.4042 C23.7432,65.2916 23.5744,61.1995 23.1882,57.1686 C22.541,50.4156 21.5964,46.1314 20.2119,39.8781 C19.9719,38.7944 20.0917,37.792 20.5958,36.6893 C20.9794,35.8498 21.7069,35.1446 22.1661,34.3837 C22.4842,34.5561 22.3452,34.6259 22.6106,34.8341 C23.2577,33.1023 25.1604,30.9669 26.3414,30.6339 C26.7217,31.0651 27.921,37.1813 28.1062,38.1893 C28.575,40.741 28.9259,43.5271 29.5252,45.9959 L32.2495,57.3009 C32.7307,59.1564 34.5567,59.0348 34.0408,56.8464 C33.9043,56.2679 33.6451,55.6286 33.4634,55.0506 C32.5523,52.1525 31.0014,44.732 30.404,41.7782 C29.6263,37.9328 29.5542,37.9372 29.1374,33.8626 C29.0425,32.9347 28.3709,30.379 29.3595,29.935 C29.9248,29.681 30.4482,29.4337 31.023,29.1586 C31.368,28.9935 32.3122,28.5304 32.6871,28.453 C32.7509,28.5588 32.7324,28.5106 32.7928,28.6779 C32.8862,28.9369 32.7458,28.4725 32.8394,28.8318 C33.2005,30.2186 33.4749,32.8167 33.6788,34.2293 L35.3335,45.9293 C35.6323,47.8414 35.8333,49.7964 36.0795,51.7291 L36.0795,51.7291 Z" id="path8"></path>
                            <path d="M118.7221,23.388 C118.9372,23.0583 119.4606,22.8777 119.8881,22.7282 C120.3119,22.5799 120.6533,22.4219 121.1087,22.2034 L123.5246,21.1249 C124.3135,20.7735 125.1795,20.4102 125.9192,20.0134 C126.7844,19.5493 127.3937,19.2238 128.2626,18.8245 C130.005,18.0238 137.5314,15.6528 139.0985,16.1511 C138.6733,17.6333 129.5648,20.9635 128.6524,21.0024 C128.4304,20.4423 128.665,20.0705 127.7391,20.1055 C126.6573,20.1464 124.7543,21.0978 123.7653,21.4731 C122.8031,21.8382 119.1867,23.7449 118.7221,23.388 L118.7221,23.388 Z M140.8468,16.7935 C141.6004,15.2716 139.929,14.2716 138.3397,14.2199 C135.6225,14.1317 129.3472,16.4571 127.0482,17.4543 C121.3785,19.9137 114.0618,23.7835 108.7881,27.1424 C107.0348,28.2592 107.736,28.5899 105.928,29.4854 L97.6445,33.9005 C96.5407,34.5585 95.5222,35.1339 94.4178,35.7178 L86.4183,40.5406 C85.4184,41.2308 84.1826,41.9065 83.2758,42.605 C82.8011,42.9705 82.2832,43.2619 81.7661,43.5955 C77.7344,46.1967 74.8037,48.4671 71.0964,51.1642 C70.588,51.5341 70.1507,51.8672 69.6354,52.2287 L51.4314,65.1651 C49.3478,66.7495 47.4934,68.1536 45.371,69.4888 C45.0989,69.66 44.8819,69.8541 44.6039,70.0284 L42.2563,71.4618 C39.3378,73.3391 38.4505,72.7575 40.031,75.2091 C40.6118,76.11 40.8469,75.8164 41.7425,75.416 C42.8368,74.9269 44.0129,74.1367 44.9174,73.5245 C46.9226,72.1669 49.423,70.0131 50.866,69.0402 L59.7415,62.1778 C60.6717,61.4132 61.7695,60.7273 62.6865,59.9641 L71.6127,53.1739 C74.3076,51.0324 79.4011,47.7123 82.3081,45.7752 L88.5812,41.7557 C89.93,40.8579 92.017,39.7823 93.3689,38.898 C94.5492,38.1258 100.0859,34.8168 101.4313,34.1582 C101.9602,33.8993 102.5275,33.5899 103.0867,33.2493 C104.6145,32.3185 112.079,28.623 113.976,27.7713 L121.8081,24.3535 C122.6749,23.9216 124.7387,22.6131 125.2359,22.8554 C126.0883,23.2707 126.1294,23.6029 127.3469,23.3332 C129.189,22.9252 136.3152,19.7557 137.8192,18.9047 C138.4274,18.5606 138.9121,18.3245 139.4517,17.9654 C139.9784,17.6149 140.4906,17.5126 140.8468,16.7935 L140.8468,16.7935 Z" id="path10"></path>
                            <path d="M106.1388,9.5517 C105.8588,9.0277 104.9411,7.5243 105.1898,6.8683 C106.2098,6.8444 108.929,10.8582 107.9109,11.5616 C107.2452,12.0216 106.3139,9.8793 106.1388,9.5517 Z M121.5898,5.7695 C119.7143,5.972 118.8812,3.5056 117.5687,1.8856 C117.2505,1.4929 116.8156,0.695 116.0424,0.7201 C115.0755,1.6295 117.8055,4.9671 116.8272,5.8699 C116.3398,5.7666 115.3605,4.458 115.1148,4.1167 C114.7952,3.6727 114.1845,2.3559 113.2634,2.4126 C112.473,2.7799 113.4858,4.7706 113.7394,5.3349 C114.059,6.0462 115.0766,8.0361 114.5381,8.4273 C114.0265,8.7989 113.693,8.0578 113.1991,7.3811 C112.8249,6.8684 112.5194,6.4322 112.1676,5.8984 C111.8543,5.4231 111.5087,4.9609 111.1979,4.462 C110.9201,4.016 110.664,3.0884 109.9104,3.2692 C109.2296,3.6352 109.8553,4.5827 110.0547,5.0766 L111.4199,8.8821 C111.4994,9.1137 112.3463,11.274 111.2535,11.0837 C110.7415,10.9946 109.4036,9.0041 109.1441,8.6117 C108.2913,7.3221 107.8387,5.7795 106.7831,5.7625 C106.5289,6.014 106.5129,6.1621 106.1734,6.3089 C105.5094,5.9659 105.278,5.086 104.1337,5.1131 C103.0841,5.8554 104.4059,8.3702 104.7769,9.0907 C105.5741,10.6389 106.9368,11.9915 106.5671,12.7936 C104.6971,13.1403 103.3503,9.4251 102.1086,9.3267 C100.5661,9.2044 102.1419,14.1862 101.9619,15.2753 C100.7051,14.7166 97.1212,6.1743 95.6355,3.8227 C95.4019,3.453 95.3347,3.3248 95.154,3.0109 C94.6315,2.1032 93.7419,2.3436 94.5095,4.6043 C95.3397,7.0493 98.4154,16.7564 97.541,18.6692 C96.7746,18.6652 96.6454,18.0449 96.0794,17.0591 L93.791,13.1081 C93.4663,12.5965 93.0075,11.4138 92.154,11.4316 C91.6206,12.0312 91.951,12.3489 92.1735,12.9972 C92.5364,14.0548 93.2924,17.7928 92.6162,18.5274 C92.1998,18.4487 92.2252,18.1916 92.1575,17.757 C91.9356,16.3332 91.4324,14.1821 90.9574,12.8732 C90.7008,12.1664 90.6444,11.4301 89.6932,11.4282 C88.8679,12.0263 89.2267,13.6018 89.4153,14.5596 C90.021,17.6347 91.3402,18.804 91.3476,20.242 C91.3546,21.6849 89.3845,24.9751 87.5094,21.1607 L84.5998,14.3819 C84.3645,13.7727 84.3763,13.2904 83.514,13.3012 C82.4143,13.5732 83.8208,15.2781 84.5107,17.258 C84.7984,18.0838 86.0107,21.2666 84.8815,21.8248 C84.6604,21.706 84.0001,20.3025 83.0142,21.0595 C82.7885,21.2328 82.5432,21.6493 82.6538,22.0623 C82.7795,22.5317 83.1771,22.4796 83.7007,22.6188 C84.6259,22.8648 84.8544,23.8695 85.4196,23.953 C86.3318,24.0878 86.439,22.6738 86.5188,21.803 C87.0281,22.3168 87.4792,23.6538 88.892,24.3335 C90.3858,25.0521 91.3228,24.137 91.8367,22.8646 C92.032,22.3811 92.263,21.2055 92.473,20.8736 C92.7815,20.3857 93.2884,20.4511 93.6613,19.5522 C94.3087,17.992 93.6091,16.731 93.7545,15.4688 C94.1891,15.5539 94.2728,15.9257 94.457,16.2519 L96.3509,19.0716 C98.0577,21.2236 99.021,19.8984 98.811,17.3634 C98.6007,14.8242 97.8446,12.6312 97.1543,10.3335 C97.0027,9.829 96.3514,8.5524 96.7151,8.0707 C97.2,8.3592 97.662,9.8821 97.9298,10.4987 C98.3377,11.4381 98.6952,12.1667 99.0826,13.0418 C99.5371,14.0686 101.0216,17.241 102.546,17.2356 C103.9062,16.2279 102.2048,12.3369 102.5972,11.256 C103.7011,11.3458 104.2809,13.7848 106.7771,13.8606 C107.3519,13.878 107.607,13.7057 108.0488,13.6573 C108.572,13.6001 108.7585,14.0093 109.4316,13.8722 C110.5493,13.6447 110.1811,12.471 110.3386,11.6413 C111.6713,13.0914 114.0231,12.9575 112.4596,9.0348 C112.356,8.7749 112.113,8.2731 112.5675,8.2755 C112.8772,8.2775 112.9973,8.7543 113.1448,9.0017 C114.1615,10.7071 115.816,10.6351 115.9369,9.2861 C116.0535,7.9861 114.8425,6.419 114.9386,5.5465 C115.3159,5.6382 116.0552,6.5042 116.3347,6.7882 C116.7738,7.2342 117.2488,7.7664 118.0021,7.7106 C118.8675,6.2067 117.3483,4.6572 117.708,3.8795 C118.4075,4.1892 119.4619,6.7545 121.077,7.2089 C123.3435,7.8465 123.5948,4.1184 121.5091,1.0892 C120.2551,-0.7323 120.2125,0.5512 120.5294,1.0621 C120.9937,1.8106 121.2972,2.0702 121.6363,3.1117 C121.8968,3.9118 122.147,5.0036 121.5898,5.7695 L121.5898,5.7695 Z" id="path12"></path>
                            <path d="M71.9543,21.9372 C72.6893,22.2976 73.6547,24.5492 73.911,25.2284 C74.2982,26.2546 75.0491,28.6436 73.3667,28.8311 C71.423,29.0478 70.4556,28.0618 70.4905,26.3653 C70.5351,24.199 71.2434,23.494 71.9543,21.9372 L71.9543,21.9372 Z M66.9376,26.9872 C65.719,22.6298 65.3768,21.3633 64.5966,16.8268 C64.4043,15.7084 63.5395,12.2615 64.6417,11.4075 C64.9579,11.5818 64.9048,11.567 65.0088,11.967 L65.9728,16.3143 C66.8639,20.8141 67.6787,24.4899 68.3393,29.0896 C68.45,29.861 68.6756,30.9208 68.6332,31.7014 C68.3662,31.5385 68.3789,31.4737 68.2623,31.1706 L67.6533,29.3937 C67.3858,28.5703 67.1713,27.8228 66.9376,26.9872 L66.9376,26.9872 Z M70.1045,18.3698 C71.6522,20.8867 71.2943,20.3153 70.5153,21.923 C69.6677,23.6722 69.6347,24.6393 69.2051,26.5032 L67.7173,19.2368 C67.4615,18.025 67.2004,16.806 66.9615,15.6267 C66.7947,14.8035 66.0751,12.6311 66.4595,11.9029 C66.9072,11.934 66.9094,12.1466 67.1001,12.5365 C67.9819,14.3387 69.0921,16.7235 70.1045,18.3698 L70.1045,18.3698 Z M68.7411,35.2119 C71.2952,36.2237 69.3085,30.0736 69.5403,28.132 C70.0704,28.7002 70.2556,29.2494 71.4961,29.7081 C72.4216,30.0503 73.6887,30.2185 74.5418,29.8856 C75.3281,29.5786 75.9632,28.962 75.7732,27.7238 C75.5592,26.3292 74.3438,24.24 73.735,23.0626 C73.37,22.3569 72.3882,21.581 72.8668,20.6493 C73.0585,20.2762 73.451,19.9955 73.7119,19.6933 C74.3997,18.8966 75.9106,17.4029 75.7972,16.3418 C75.2752,15.9336 75.0774,15.9377 74.6496,16.4804 C74.1324,17.1363 72.3644,19.3821 71.805,19.4703 C71.0138,18.8854 66.9448,9.2613 65.8496,8.0394 C65.3513,7.4836 64.2808,6.2039 63.649,7.6091 C61.9629,11.3593 64.3647,21.4345 65.3897,24.9829 C65.8921,26.7223 66.3992,28.4691 66.9124,30.1717 C67.2056,31.1441 68.3768,34.6855 68.7411,35.2119 L68.7411,35.2119 Z" id="path14"></path>
                            <path d="M81.0474,21.7469 C80.5671,21.5167 78.0453,15.7028 79.3988,14.9357 C80.0517,14.5656 80.1397,15.7 80.2497,16.1666 C80.4953,17.2091 81.4769,21.2002 81.0474,21.7469 L81.0474,21.7469 Z M77.8491,13.7224 C77.5364,13.382 76.7569,11.5158 76.5501,10.9939 C76.1743,10.0452 75.7909,9.1157 75.4432,8.1578 C75.1581,7.372 74.7448,5.7141 74.2397,5.3762 C73.5989,4.9474 73.3142,5.5189 73.3853,6.1542 C73.4537,6.7649 75.9576,12.1632 76.3879,13.1303 C78.4029,17.6595 78.1309,18.0048 79.3432,21.9872 C79.6442,22.9762 80.0576,23.9588 80.295,24.9328 C80.8389,27.1648 82.1731,26.718 82.4642,26.2133 C82.839,25.5637 82.6365,25.0728 82.4031,24.6135 C82.1131,24.043 82.201,23.5759 82.185,22.9067 C82.1274,20.4938 81.8373,18.5195 81.2959,16.3199 C80.4507,12.8865 78.5394,11.2588 77.8491,13.7224 L77.8491,13.7224 Z" id="path16"></path>
                        </g>
                        <g id="Group" transform="translate(0.000000, 175.000000)" stroke="#FFFFFF" stroke-width="1.38750005" fill="#FFFFFF">
                            <path d="M12.2513,62.5116 C12.9557,58.5532 14.0562,54.8319 15.2968,51.1312 C15.8317,49.5355 18.3799,41.3515 19.0068,40.7768 C19.6295,40.9538 19.5796,41.6104 19.7062,42.2497 C19.8202,42.826 19.9363,43.3266 20.0436,43.8712 C22.5483,56.5859 24.1896,86.2697 22.0351,98.0333 L22.0166,98.1339 C21.688,99.9283 20.9519,103.6782 18.9507,101.5353 C18.0686,100.5907 17.0387,98.5338 16.4925,97.0832 C16.175,96.2398 15.8116,95.4648 15.4983,94.6061 C15.1934,93.7705 14.9032,92.9865 14.6239,92.1335 C11.5936,82.8812 10.387,72.9891 12.2513,62.5116 L12.2513,62.5116 Z M33.2176,21.7112 C36.0615,21.9614 39.6018,21.1752 40.5437,21.3875 C40.4529,22.0848 39.4547,22.5998 39.0579,22.8666 C37.8696,23.6654 35.0032,25.4349 33.7972,25.7592 C33.457,25.2189 33.1093,22.6059 33.2176,21.7112 L33.2176,21.7112 Z M31.6153,20.4948 C30.1376,20.6388 25.92,19.9353 26.7015,16.8294 C26.9428,15.8708 27.6821,14.4922 28.1898,13.6622 C30.8804,9.2632 30.4908,11.7314 31.0124,15.851 C31.1091,16.614 31.7169,20.0666 31.6153,20.4948 L31.6153,20.4948 Z M36.0795,51.7291 C36.1801,52.5192 36.1303,54.3463 36.2724,54.8592 C36.5828,55.9799 38.0075,56.099 37.9609,54.3942 C37.9342,53.4177 37.7164,52.3556 37.6163,51.3775 C37.2847,48.136 37.7628,44.8956 37.8532,41.6137 C37.9093,39.5753 37.7853,37.2292 37.9196,35.2517 C38.2436,35.5577 41.838,44.2103 42.3318,45.3791 C42.799,46.485 43.2696,47.7245 43.7854,48.7681 C44.4436,50.1002 46.5667,50.2306 45.5049,47.9269 C45.2388,47.3495 44.9471,46.99 44.7049,46.2826 L43.0721,40.8192 C42.8913,40.2061 41.8431,37.6746 42.5046,37.0659 C42.7799,38.0697 44.0358,40.6097 44.5593,41.7218 C45.2114,43.107 45.9173,45.0787 46.7361,46.2815 C47.1203,46.8459 48.4905,47.9238 48.9967,46.6983 C49.6942,45.0099 47.6051,40.3341 47.6271,38.6545 C48.3666,39.0782 49.5025,43.1247 51.9013,45.4238 C54.8438,48.244 55.0557,40.1334 55.2811,38.2297 C56.1391,38.6389 56.7453,41.0212 57.4409,41.8445 C58.5929,43.2082 60.2535,43.1546 60.8497,41.3576 C61.572,39.1806 61.1446,36.2692 60.3049,34.3162 C60.0602,33.7472 59.8006,32.7817 59.152,32.7008 C58.6849,33.1032 58.9312,33.3158 59.1093,33.9143 C59.4673,35.1168 60.4329,40.5403 59.0816,40.9565 C58.0547,41.2727 57.6778,39.7971 57.4036,39.2315 C56.6352,37.6465 56.0302,36.1791 55.3967,34.4679 C55.0549,33.5448 54.8512,32.8922 54.574,31.9596 C54.3373,31.1632 54.0405,30.0219 52.936,30.1888 C52.5833,30.8865 53.1649,32.5425 53.3393,33.3436 C53.5698,34.4022 53.7538,35.4642 53.8206,36.6188 C53.9159,38.2636 53.8366,42.803 53.0842,44.0974 C51.728,44.2893 51.209,42.6586 50.7592,41.7324 C50.2351,40.6534 49.8192,39.6682 49.2891,38.5283 L47.9473,35.2367 C47.6671,34.4388 46.9999,32.2336 45.7997,33.1972 C45.1986,34.0355 47.6961,42.2537 47.1217,43.493 C46.448,43.3531 46.4326,42.8389 46.2033,42.2533 C45.669,40.8881 43.1941,34.2984 41.6595,33.8794 C39.8972,33.3982 41.0078,37.1378 40.9371,38.1259 C40.6963,37.8975 40.5586,37.5306 40.4157,37.2093 L38.4722,32.6638 C38.0968,31.9483 37.142,31.9634 36.8505,32.6202 C36.6431,33.0876 36.6239,40.7147 36.3184,42.3762 C36.304,42.3525 36.2884,42.3196 36.2807,42.3022 C35.9355,41.5201 35.5928,38.8248 35.4601,38.0074 L34.1578,29.1432 C33.9912,27.9165 34.2273,28.0366 35.0995,27.5574 L38.5105,25.5017 C39.6953,24.7683 42.8073,22.8846 43.0262,21.4397 C43.2881,19.7117 40.2888,19.8063 38.9898,19.9894 C37.4946,20.2001 36.0832,20.3937 34.5506,20.5559 C33.0883,20.7106 32.7461,20.7936 32.5405,17.5164 C32.4387,15.8938 32.4803,14.4278 32.2733,12.864 C32.0782,11.3901 31.6696,9.9462 31.2238,8.6662 C30.5262,6.6628 29.7405,6.4201 28.5005,8.2859 C27.126,10.3541 24.9407,14.0567 25.2997,17.008 C25.5029,18.6791 25.992,19.7879 27.0175,20.6448 C28.7221,22.0692 29.8135,21.6531 31.8469,21.984 C32.0518,22.5822 32.2703,23.6805 32.3947,24.4764 C32.7317,26.6313 32.8066,26.0697 29.6189,27.6434 C29.0621,27.9183 27.9541,28.6122 27.4992,28.6593 C27.0793,27.8711 26.7883,25.8374 25.2804,26.7149 C22.5494,28.304 20.2473,34.879 19.2904,35.9149 C19.0949,35.6028 17.6363,30.7125 16.8171,29.2164 C15.779,27.3201 14.6538,25.2019 12.4546,23.8894 C11.3057,23.2037 9.5775,23.0544 8.3668,23.3857 C5.0749,24.2866 2.802,28.4554 1.5883,31.6091 C0.5543,34.2959 0.0308,37.3447 0.2165,40.2152 C0.6246,46.5225 5.5411,54.2194 11.7524,50.9525 C12.7862,50.4088 13.9068,49.2793 13.4244,48.039 C12.6792,47.996 11.9203,49.2404 11.2168,49.6764 C10.5756,50.0738 9.5759,50.5032 8.4639,50.39 C6.5125,50.1914 4.7613,48.678 3.8655,47.1753 C1.9164,43.906 0.9372,40.84 1.9403,35.6186 C2.834,30.966 5.1138,27.2634 8.0357,25.6958 C9.6862,24.8103 12.1642,24.9377 13.6321,26.4999 C14.6776,27.6124 15.6648,29.37 16.3404,31.0416 C17.0069,32.6908 17.598,34.4532 18.1323,36.3089 C18.5547,37.776 18.697,37.6563 18.0555,39.2576 C17.6726,40.2136 17.2852,41.197 16.9171,42.1734 C15.3764,46.2611 13.9844,50.4623 12.827,54.8187 C11.6348,59.3062 10.5325,64.5165 10.1409,69.1633 C9.5444,76.2412 10.9811,86.2443 13.128,92.82 C14.1572,95.9722 15.6618,99.9425 17.685,102.4999 C19.0971,104.2848 21.1022,104.222 22.3204,101.9249 C25.2215,96.4546 24.5551,75.9369 24.0569,69.4042 C23.7432,65.2916 23.5744,61.1995 23.1882,57.1686 C22.541,50.4156 21.5964,46.1314 20.2119,39.8781 C19.9719,38.7944 20.0917,37.792 20.5958,36.6893 C20.9794,35.8498 21.7069,35.1446 22.1661,34.3837 C22.4842,34.5561 22.3452,34.6259 22.6106,34.8341 C23.2577,33.1023 25.1604,30.9669 26.3414,30.6339 C26.7217,31.0651 27.921,37.1813 28.1062,38.1893 C28.575,40.741 28.9259,43.5271 29.5252,45.9959 L32.2495,57.3009 C32.7307,59.1564 34.5567,59.0348 34.0408,56.8464 C33.9043,56.2679 33.6451,55.6286 33.4634,55.0506 C32.5523,52.1525 31.0014,44.732 30.404,41.7782 C29.6263,37.9328 29.5542,37.9372 29.1374,33.8626 C29.0425,32.9347 28.3709,30.379 29.3595,29.935 C29.9248,29.681 30.4482,29.4337 31.023,29.1586 C31.368,28.9935 32.3122,28.5304 32.6871,28.453 C32.7509,28.5588 32.7324,28.5106 32.7928,28.6779 C32.8862,28.9369 32.7458,28.4725 32.8394,28.8318 C33.2005,30.2186 33.4749,32.8167 33.6788,34.2293 L35.3335,45.9293 C35.6323,47.8414 35.8333,49.7964 36.0795,51.7291 L36.0795,51.7291 Z" id="path8"></path>
                            <path d="M118.7221,23.388 C118.9372,23.0583 119.4606,22.8777 119.8881,22.7282 C120.3119,22.5799 120.6533,22.4219 121.1087,22.2034 L123.5246,21.1249 C124.3135,20.7735 125.1795,20.4102 125.9192,20.0134 C126.7844,19.5493 127.3937,19.2238 128.2626,18.8245 C130.005,18.0238 137.5314,15.6528 139.0985,16.1511 C138.6733,17.6333 129.5648,20.9635 128.6524,21.0024 C128.4304,20.4423 128.665,20.0705 127.7391,20.1055 C126.6573,20.1464 124.7543,21.0978 123.7653,21.4731 C122.8031,21.8382 119.1867,23.7449 118.7221,23.388 L118.7221,23.388 Z M140.8468,16.7935 C141.6004,15.2716 139.929,14.2716 138.3397,14.2199 C135.6225,14.1317 129.3472,16.4571 127.0482,17.4543 C121.3785,19.9137 114.0618,23.7835 108.7881,27.1424 C107.0348,28.2592 107.736,28.5899 105.928,29.4854 L97.6445,33.9005 C96.5407,34.5585 95.5222,35.1339 94.4178,35.7178 L86.4183,40.5406 C85.4184,41.2308 84.1826,41.9065 83.2758,42.605 C82.8011,42.9705 82.2832,43.2619 81.7661,43.5955 C77.7344,46.1967 74.8037,48.4671 71.0964,51.1642 C70.588,51.5341 70.1507,51.8672 69.6354,52.2287 L51.4314,65.1651 C49.3478,66.7495 47.4934,68.1536 45.371,69.4888 C45.0989,69.66 44.8819,69.8541 44.6039,70.0284 L42.2563,71.4618 C39.3378,73.3391 38.4505,72.7575 40.031,75.2091 C40.6118,76.11 40.8469,75.8164 41.7425,75.416 C42.8368,74.9269 44.0129,74.1367 44.9174,73.5245 C46.9226,72.1669 49.423,70.0131 50.866,69.0402 L59.7415,62.1778 C60.6717,61.4132 61.7695,60.7273 62.6865,59.9641 L71.6127,53.1739 C74.3076,51.0324 79.4011,47.7123 82.3081,45.7752 L88.5812,41.7557 C89.93,40.8579 92.017,39.7823 93.3689,38.898 C94.5492,38.1258 100.0859,34.8168 101.4313,34.1582 C101.9602,33.8993 102.5275,33.5899 103.0867,33.2493 C104.6145,32.3185 112.079,28.623 113.976,27.7713 L121.8081,24.3535 C122.6749,23.9216 124.7387,22.6131 125.2359,22.8554 C126.0883,23.2707 126.1294,23.6029 127.3469,23.3332 C129.189,22.9252 136.3152,19.7557 137.8192,18.9047 C138.4274,18.5606 138.9121,18.3245 139.4517,17.9654 C139.9784,17.6149 140.4906,17.5126 140.8468,16.7935 L140.8468,16.7935 Z" id="path10"></path>
                            <path d="M106.1388,9.5517 C105.8588,9.0277 104.9411,7.5243 105.1898,6.8683 C106.2098,6.8444 108.929,10.8582 107.9109,11.5616 C107.2452,12.0216 106.3139,9.8793 106.1388,9.5517 Z M121.5898,5.7695 C119.7143,5.972 118.8812,3.5056 117.5687,1.8856 C117.2505,1.4929 116.8156,0.695 116.0424,0.7201 C115.0755,1.6295 117.8055,4.9671 116.8272,5.8699 C116.3398,5.7666 115.3605,4.458 115.1148,4.1167 C114.7952,3.6727 114.1845,2.3559 113.2634,2.4126 C112.473,2.7799 113.4858,4.7706 113.7394,5.3349 C114.059,6.0462 115.0766,8.0361 114.5381,8.4273 C114.0265,8.7989 113.693,8.0578 113.1991,7.3811 C112.8249,6.8684 112.5194,6.4322 112.1676,5.8984 C111.8543,5.4231 111.5087,4.9609 111.1979,4.462 C110.9201,4.016 110.664,3.0884 109.9104,3.2692 C109.2296,3.6352 109.8553,4.5827 110.0547,5.0766 L111.4199,8.8821 C111.4994,9.1137 112.3463,11.274 111.2535,11.0837 C110.7415,10.9946 109.4036,9.0041 109.1441,8.6117 C108.2913,7.3221 107.8387,5.7795 106.7831,5.7625 C106.5289,6.014 106.5129,6.1621 106.1734,6.3089 C105.5094,5.9659 105.278,5.086 104.1337,5.1131 C103.0841,5.8554 104.4059,8.3702 104.7769,9.0907 C105.5741,10.6389 106.9368,11.9915 106.5671,12.7936 C104.6971,13.1403 103.3503,9.4251 102.1086,9.3267 C100.5661,9.2044 102.1419,14.1862 101.9619,15.2753 C100.7051,14.7166 97.1212,6.1743 95.6355,3.8227 C95.4019,3.453 95.3347,3.3248 95.154,3.0109 C94.6315,2.1032 93.7419,2.3436 94.5095,4.6043 C95.3397,7.0493 98.4154,16.7564 97.541,18.6692 C96.7746,18.6652 96.6454,18.0449 96.0794,17.0591 L93.791,13.1081 C93.4663,12.5965 93.0075,11.4138 92.154,11.4316 C91.6206,12.0312 91.951,12.3489 92.1735,12.9972 C92.5364,14.0548 93.2924,17.7928 92.6162,18.5274 C92.1998,18.4487 92.2252,18.1916 92.1575,17.757 C91.9356,16.3332 91.4324,14.1821 90.9574,12.8732 C90.7008,12.1664 90.6444,11.4301 89.6932,11.4282 C88.8679,12.0263 89.2267,13.6018 89.4153,14.5596 C90.021,17.6347 91.3402,18.804 91.3476,20.242 C91.3546,21.6849 89.3845,24.9751 87.5094,21.1607 L84.5998,14.3819 C84.3645,13.7727 84.3763,13.2904 83.514,13.3012 C82.4143,13.5732 83.8208,15.2781 84.5107,17.258 C84.7984,18.0838 86.0107,21.2666 84.8815,21.8248 C84.6604,21.706 84.0001,20.3025 83.0142,21.0595 C82.7885,21.2328 82.5432,21.6493 82.6538,22.0623 C82.7795,22.5317 83.1771,22.4796 83.7007,22.6188 C84.6259,22.8648 84.8544,23.8695 85.4196,23.953 C86.3318,24.0878 86.439,22.6738 86.5188,21.803 C87.0281,22.3168 87.4792,23.6538 88.892,24.3335 C90.3858,25.0521 91.3228,24.137 91.8367,22.8646 C92.032,22.3811 92.263,21.2055 92.473,20.8736 C92.7815,20.3857 93.2884,20.4511 93.6613,19.5522 C94.3087,17.992 93.6091,16.731 93.7545,15.4688 C94.1891,15.5539 94.2728,15.9257 94.457,16.2519 L96.3509,19.0716 C98.0577,21.2236 99.021,19.8984 98.811,17.3634 C98.6007,14.8242 97.8446,12.6312 97.1543,10.3335 C97.0027,9.829 96.3514,8.5524 96.7151,8.0707 C97.2,8.3592 97.662,9.8821 97.9298,10.4987 C98.3377,11.4381 98.6952,12.1667 99.0826,13.0418 C99.5371,14.0686 101.0216,17.241 102.546,17.2356 C103.9062,16.2279 102.2048,12.3369 102.5972,11.256 C103.7011,11.3458 104.2809,13.7848 106.7771,13.8606 C107.3519,13.878 107.607,13.7057 108.0488,13.6573 C108.572,13.6001 108.7585,14.0093 109.4316,13.8722 C110.5493,13.6447 110.1811,12.471 110.3386,11.6413 C111.6713,13.0914 114.0231,12.9575 112.4596,9.0348 C112.356,8.7749 112.113,8.2731 112.5675,8.2755 C112.8772,8.2775 112.9973,8.7543 113.1448,9.0017 C114.1615,10.7071 115.816,10.6351 115.9369,9.2861 C116.0535,7.9861 114.8425,6.419 114.9386,5.5465 C115.3159,5.6382 116.0552,6.5042 116.3347,6.7882 C116.7738,7.2342 117.2488,7.7664 118.0021,7.7106 C118.8675,6.2067 117.3483,4.6572 117.708,3.8795 C118.4075,4.1892 119.4619,6.7545 121.077,7.2089 C123.3435,7.8465 123.5948,4.1184 121.5091,1.0892 C120.2551,-0.7323 120.2125,0.5512 120.5294,1.0621 C120.9937,1.8106 121.2972,2.0702 121.6363,3.1117 C121.8968,3.9118 122.147,5.0036 121.5898,5.7695 L121.5898,5.7695 Z" id="path12"></path>
                            <path d="M71.9543,21.9372 C72.6893,22.2976 73.6547,24.5492 73.911,25.2284 C74.2982,26.2546 75.0491,28.6436 73.3667,28.8311 C71.423,29.0478 70.4556,28.0618 70.4905,26.3653 C70.5351,24.199 71.2434,23.494 71.9543,21.9372 L71.9543,21.9372 Z M66.9376,26.9872 C65.719,22.6298 65.3768,21.3633 64.5966,16.8268 C64.4043,15.7084 63.5395,12.2615 64.6417,11.4075 C64.9579,11.5818 64.9048,11.567 65.0088,11.967 L65.9728,16.3143 C66.8639,20.8141 67.6787,24.4899 68.3393,29.0896 C68.45,29.861 68.6756,30.9208 68.6332,31.7014 C68.3662,31.5385 68.3789,31.4737 68.2623,31.1706 L67.6533,29.3937 C67.3858,28.5703 67.1713,27.8228 66.9376,26.9872 L66.9376,26.9872 Z M70.1045,18.3698 C71.6522,20.8867 71.2943,20.3153 70.5153,21.923 C69.6677,23.6722 69.6347,24.6393 69.2051,26.5032 L67.7173,19.2368 C67.4615,18.025 67.2004,16.806 66.9615,15.6267 C66.7947,14.8035 66.0751,12.6311 66.4595,11.9029 C66.9072,11.934 66.9094,12.1466 67.1001,12.5365 C67.9819,14.3387 69.0921,16.7235 70.1045,18.3698 L70.1045,18.3698 Z M68.7411,35.2119 C71.2952,36.2237 69.3085,30.0736 69.5403,28.132 C70.0704,28.7002 70.2556,29.2494 71.4961,29.7081 C72.4216,30.0503 73.6887,30.2185 74.5418,29.8856 C75.3281,29.5786 75.9632,28.962 75.7732,27.7238 C75.5592,26.3292 74.3438,24.24 73.735,23.0626 C73.37,22.3569 72.3882,21.581 72.8668,20.6493 C73.0585,20.2762 73.451,19.9955 73.7119,19.6933 C74.3997,18.8966 75.9106,17.4029 75.7972,16.3418 C75.2752,15.9336 75.0774,15.9377 74.6496,16.4804 C74.1324,17.1363 72.3644,19.3821 71.805,19.4703 C71.0138,18.8854 66.9448,9.2613 65.8496,8.0394 C65.3513,7.4836 64.2808,6.2039 63.649,7.6091 C61.9629,11.3593 64.3647,21.4345 65.3897,24.9829 C65.8921,26.7223 66.3992,28.4691 66.9124,30.1717 C67.2056,31.1441 68.3768,34.6855 68.7411,35.2119 L68.7411,35.2119 Z" id="path14"></path>
                            <path d="M81.0474,21.7469 C80.5671,21.5167 78.0453,15.7028 79.3988,14.9357 C80.0517,14.5656 80.1397,15.7 80.2497,16.1666 C80.4953,17.2091 81.4769,21.2002 81.0474,21.7469 L81.0474,21.7469 Z M77.8491,13.7224 C77.5364,13.382 76.7569,11.5158 76.5501,10.9939 C76.1743,10.0452 75.7909,9.1157 75.4432,8.1578 C75.1581,7.372 74.7448,5.7141 74.2397,5.3762 C73.5989,4.9474 73.3142,5.5189 73.3853,6.1542 C73.4537,6.7649 75.9576,12.1632 76.3879,13.1303 C78.4029,17.6595 78.1309,18.0048 79.3432,21.9872 C79.6442,22.9762 80.0576,23.9588 80.295,24.9328 C80.8389,27.1648 82.1731,26.718 82.4642,26.2133 C82.839,25.5637 82.6365,25.0728 82.4031,24.6135 C82.1131,24.043 82.201,23.5759 82.185,22.9067 C82.1274,20.4938 81.8373,18.5195 81.2959,16.3199 C80.4507,12.8865 78.5394,11.2588 77.8491,13.7224 L77.8491,13.7224 Z" id="path16"></path>
                        </g>
                        <path d="M89.5966,240.5625 C89.2876,240.8447 89.0374,241.3015 88.6282,241.6691 C87.4384,242.7381 86.2808,242.3182 86.4972,243.4775 C86.5748,243.8935 86.8938,244.468 87.1379,244.7074 C88.1993,245.748 88.6015,243.8771 89.1207,243.0178 C89.3986,242.5576 89.6913,242.1498 89.9846,241.7213 C90.4479,241.0442 90.4897,240.6612 89.5966,240.5625 L89.5966,240.5625 Z" id="path18" stroke="#FFFFFF" stroke-width="1.38750005" fill="#FFFFFF"></path>
                        <path d="M118.7608,217.3632 C117.5212,217.5868 118.0953,218.9829 118.972,219.1258 C119.9095,219.2787 119.9756,217.1442 118.7608,217.3632 Z" id="path20" stroke="#FFFFFF" stroke-width="1.38750005" fill="#FFFFFF"></path>
                    </g>
                </g>
                <text id="TM" fill="#343434" font-family="ArialMT, Arial" font-size="16" font-weight="normal" letter-spacing="-0.0738461316">
                    <tspan x="357" y="15">TM</tspan>
                </text>
                <text id="TM" fill="url(#linearGradient-4)" font-family="ArialMT, Arial" font-size="16" font-weight="normal" letter-spacing="-0.0738461316">
                    <tspan x="355" y="14">TM</tspan>
                </text>
            </g>
        </g>
    </g>
</svg>