<?xml version="1.0" encoding="UTF-8"?>
<svg width="39px" height="78px" viewBox="0 0 39 78" version="1.1" xmlns="http://www.w3.org/2000/svg" xmlns:xlink="http://www.w3.org/1999/xlink">
    <!-- Generator: Sketch 46.2 (44496) - http://www.bohemiancoding.com/sketch -->
    <title>MEN</title>
    <desc>Created with Sketch.</desc>
    <defs></defs>
    <g id="Page-1" stroke="none" stroke-width="1" fill="none" fill-rule="evenodd">
        <g id="Packages" transform="translate(-388.000000, -189.000000)" fill-rule="nonzero" stroke="#FFFFFF">
            <g id="Group-2" transform="translate(389.000000, 190.000000)">
                <g id="MEN">
                    <ellipse id="Oval" cx="18.5787742" cy="8.544047" rx="8.55813978" ry="8.53700261"></ellipse>
                    <path d="M36.9744382,26.3627728 L36.9744382,47.3816345 C36.9744382,48.4374987 36.548043,49.3928564 35.8553871,50.0839008 C35.161836,50.7758381 34.2045108,51.203859 33.1470269,51.203859 C31.0303683,51.203859 29.315836,49.4930653 29.315836,47.3816345 L29.315836,32.4507102 L29.315836,31.8031227 C29.315836,31.5261097 29.2075215,31.2756867 29.0260027,31.0946162 C28.8444839,30.9135457 28.6009005,30.8017285 28.3231022,30.8017285 C27.7684005,30.8017285 27.3265887,31.2499896 27.3265887,31.8031227 L27.3265887,32.4507102 L27.3265887,72.0952272 C27.3265887,74.2065587 25.619914,75.9173525 23.5023602,75.9173525 C22.445672,75.9173525 21.4863575,75.4893316 20.7920108,74.7982872 C20.0993548,74.1063499 19.6679866,73.1509922 19.6679866,72.0952272 L19.6679866,52.2940522 C19.6679866,51.7298068 19.1359624,51.2026684 18.541078,51.2026684 C17.9262016,51.2026684 17.4798145,51.7298068 17.4798145,52.3230235 L17.4798145,72.0952272 C17.4798145,74.2065587 15.7386263,75.9173525 13.621172,75.9173525 C12.562793,75.9173525 11.5714516,75.4893316 10.8778011,74.7982872 C10.1851452,74.1063499 9.72165054,73.1509922 9.72165054,72.0952272 L9.72165054,32.4507102 L9.72165054,31.8031227 C9.72165054,31.5261097 9.62198925,31.2756867 9.44037097,31.0946162 C9.25875269,30.9135457 9.01099194,30.8017285 8.73319355,30.8017285 C8.17849194,30.8017285 7.73230376,31.2499896 7.73230376,31.8031227 L7.73230376,32.4507102 L7.73230376,47.3816345 C7.73230376,48.4374987 7.28730914,49.3928564 6.59554839,50.0839008 C5.90189785,50.7758381 4.95342473,51.203859 3.89594086,51.203859 C1.77938172,51.203859 0.0737016129,49.4930653 0.0737016129,47.3816345 L0.0737016129,25.2469817 C0.0737016129,25.0933943 0.122935484,24.9489347 0.158841398,24.7986214 C0.869897849,21.786799 3.57467742,19.5525379 6.81148118,19.5525379 L30.1614651,19.5525379 C33.9398414,19.5525379 36.9744382,22.5931332 36.9744382,26.3627728 Z" id="Shape"></path>
                </g>
            </g>
        </g>
    </g>
</svg>