<?xml version="1.0" encoding="UTF-8"?>
<svg width="16px" height="11px" viewBox="0 0 16 11" version="1.1" xmlns="http://www.w3.org/2000/svg" xmlns:xlink="http://www.w3.org/1999/xlink">
    <!-- Generator: Sketch 46.2 (44496) - http://www.bohemiancoding.com/sketch -->
    <title>close-envelope</title>
    <desc>Created with Sketch.</desc>
    <defs></defs>
    <g id="Page-1" stroke="none" stroke-width="1" fill="none" fill-rule="evenodd">
        <g id="Contact-US" transform="translate(-631.000000, -368.000000)" fill-rule="nonzero" fill="#FFFFFF">
            <g id="close-envelope" transform="translate(631.000000, 368.000000)">
                <g id="Group" transform="translate(1.000000, 0.000000)">
                    <path d="M6.684,7.516 L4.952,6 L0,10.245 C0.18,10.412 0.423,10.516 0.691,10.516 L12.677,10.516 C12.944,10.516 13.186,10.412 13.365,10.245 L8.416,6 L6.684,7.516 Z" id="Shape"></path>
                    <path d="M13.366,0.271 C13.186,0.103 12.944,0 12.675,0 L0.689,0 C0.422,0 0.18,0.104 0,0.273 L6.682,6 L13.366,0.271 Z" id="Shape"></path>
                </g>
                <g id="Group-2" transform="translate(0.000000, 1.000000)">
                    <polygon id="Shape" points="0 0 0 8.308 4.833 4.201"></polygon>
                    <polygon id="Shape" points="11 4.204 15.833 8.311 15.833 0"></polygon>
                </g>
            </g>
        </g>
    </g>
</svg>