<svg xmlns="http://www.w3.org/2000/svg" width="16" height="13" viewBox="0 0 16 13">
    <path fill="#FFF" fill-rule="nonzero" d="M15.59 1.951a5.919 5.919 0 0 1-1.032.35c.39-.372.684-.837.85-1.356a.169.169 0 0 0-.247-.197 5.949 5.949 0 0 1-1.578.653.418.418 0 0 1-.375-.093A3.223 3.223 0 0 0 11.073.5c-.341 0-.685.053-1.023.158a3.13 3.13 0 0 0-2.107 2.258c-.095.4-.12.8-.076 1.19a.12.12 0 0 1-.13.13 8.457 8.457 0 0 1-5.816-3.113.169.169 0 0 0-.276.022 3.236 3.236 0 0 0-.437 1.626c0 .876.351 1.703.962 2.305a2.888 2.888 0 0 1-.736-.286.169.169 0 0 0-.251.146 3.238 3.238 0 0 0 1.885 2.983 2.883 2.883 0 0 1-.613-.051.169.169 0 0 0-.192.218 3.236 3.236 0 0 0 2.554 2.204 5.946 5.946 0 0 1-3.335 1.015H1.11a.247.247 0 0 0-.242.187.256.256 0 0 0 .123.283 8.843 8.843 0 0 0 4.45 1.202c1.368 0 2.648-.272 3.804-.808a8.4 8.4 0 0 0 2.783-2.09 9.166 9.166 0 0 0 1.704-2.86 9.051 9.051 0 0 0 .58-3.13v-.05a.55.55 0 0 1 .205-.428A6.387 6.387 0 0 0 15.799 2.2c.094-.14-.054-.317-.209-.249z"/>
</svg>
