<?xml version="1.0" encoding="UTF-8"?>
<svg width="47px" height="78px" viewBox="0 0 47 78" version="1.1" xmlns="http://www.w3.org/2000/svg" xmlns:xlink="http://www.w3.org/1999/xlink">
    <!-- Generator: Sketch 46.2 (44496) - http://www.bohemiancoding.com/sketch -->
    <title>WOMEN</title>
    <desc>Created with Sketch.</desc>
    <defs></defs>
    <g id="Page-1" stroke="none" stroke-width="1" fill="none" fill-rule="evenodd">
        <g id="Packages" transform="translate(-522.000000, -189.000000)" stroke="#FFFFFF" fill-rule="nonzero">
            <g id="Group-2" transform="translate(389.000000, 190.000000)">
                <g id="WOMEN" transform="translate(134.000000, 0.000000)">
                    <ellipse id="Oval" cx="22.5098462" cy="8.53700261" rx="8.50984615" ry="8.53700261"></ellipse>
                    <path d="M44.9732967,46.6392898 C44.9732967,48.6275927 43.3664505,50.2395666 41.3851648,50.2395666 C40.6022637,50.2395666 39.8778132,49.9881514 39.2875714,49.5610235 C38.6974286,49.1331018 38.2423846,48.5304595 37.9974066,47.8290966 L37.9949341,47.8225483 C37.9778242,47.771154 37.9607143,47.7204543 37.9452857,47.6681671 L32.7633626,31.7160052 C32.6550659,31.3485065 32.4359011,31.1775561 31.8975824,31.2399634 C31.5449011,31.2808407 31.2327692,31.6890183 31.111022,32.2508825 L30.1616703,37.5156188 C30.1616703,37.5156188 37.7493626,55.6486632 37.9632857,56.4288042 C38.4214945,58.0996136 37.0979011,58 37.0979011,58 L31.1443516,58 L31.1443516,72.5423916 C31.1443516,73.5983551 30.6914835,74.5536136 30.0019451,75.2462454 C29.3123077,75.9370914 28.3451538,76.3648146 27.2925495,76.3648146 C25.1868462,76.3648146 23.4737802,74.6330862 23.4737802,72.5212585 L23.4578571,58 L21.5155385,58 L21.5048571,72.5212585 C21.5048571,74.6330862 19.7972308,76.3542977 17.6913297,76.3542977 C16.6388242,76.3542977 15.6647473,75.9318329 14.9751099,75.2409869 C14.2856703,74.5484543 13.8365604,73.5982559 13.8365604,72.5423916 L13.8365604,58 L7.8753956,58 C7.8753956,58 6.5518022,58.0996136 7.01001099,56.4288042 C7.32491209,55.2806684 14.8018352,37.5355614 14.8018352,37.5355614 L13.8622747,32.245624 C13.7589231,31.5750183 13.4878352,31.3671593 13.2434505,31.2918538 C12.7143297,31.1285431 12.3181319,31.3473159 12.2098352,31.7148146 L7.02801099,47.6674726 C7.01258242,47.7196606 6.99547253,47.7708564 6.97846154,47.8222507 L6.97598901,47.8288982 C6.73091209,48.5302611 6.27596703,49.1331018 5.68582418,49.5609243 C5.09558242,49.9880522 4.37123077,50.2395666 3.58813187,50.2395666 C1.60684615,50.2395666 0,48.6275927 0,46.6392898 C0,46.200752 0.0782307692,45.7801723 0.222230769,45.3915405 C0.222230769,45.3907467 0.223021978,45.389953 0.223021978,45.389953 C0.608835165,44.1993525 6.71469231,25.3875666 6.76186813,25.246282 C8.14005495,21.1405953 10.1669341,20 13.3861648,20 L31.5871319,20 C34.8064615,20 36.8333407,21.1405953 38.2114286,25.246282 C38.2586044,25.3876658 44.3643626,44.1921097 44.7502747,45.3827102 C44.7502747,45.3827102 44.7510659,45.3871749 44.7510659,45.3879687 C44.8952637,45.7766005 44.9732967,46.200752 44.9732967,46.6392898 Z" id="Shape"></path>
                </g>
            </g>
        </g>
    </g>
</svg>